<?xml version="1.0" encoding="UTF-8"?><svg xmlns="http://www.w3.org/2000/svg" viewBox="0 0 134.44 122.03"><defs><style>.d{fill:#333;}</style></defs><g id="a"/><g id="b"><g id="c"><g><path class="d" d="M77.63,78.44c-1.49-.98-2.79-1.88-3.79-2.61,.37-.46,.7-.9,1.01-1.32,.2-.27,.39-.53,.59-.78,1.71-2.18,4.74-7.33,7.19-11.57,.14-.24,.25-.44,.34-.58,.63-.6,4.67-4.8,4.31-12.75-.19-4.32-.87-6.03-1.6-7.54q-.22-.45-.23-.84c-.04-1.64,0-3.54,.03-5.38l.03-1.21c.2-9,.46-20.21-7.27-27.25-1.7-1.55-8.3-6.6-21.91-6.6-9.35,0-17.55,2.48-21.94,6.63-7.67,7.26-7.42,18.53-7.23,27.58l.02,.85c.04,1.84,.08,3.74,.03,5.38q-.01,.4-.23,.85c-.73,1.51-1.4,3.22-1.59,7.54-.36,7.99,3.75,12.21,4.32,12.76,.07,.13,.17,.29,.27,.48,2.52,4.43,5.64,9.76,7.31,11.73,.23,.27,.46,.58,.7,.91,.15,.2,.3,.41,.47,.62-3.74,2.67-13.4,9.19-20.91,10.96C1.71,90.02,0,99.24,0,103.04v5.26c0,1.38,1.12,2.5,2.5,2.5s2.5-1.12,2.5-2.5v-5.26c0-5.5,4.99-9.82,13.7-11.87,9.03-2.12,20.11-9.87,23.42-12.29,2.69,1.81,6.9,3.32,14.05,3.32s11.07-1.3,13.83-2.97c1.12,.82,2.8,2.03,4.89,3.4,.42,.28,.9,.41,1.37,.41,.81,0,1.61-.4,2.09-1.13,.76-1.15,.43-2.7-.72-3.46Zm-35.62-6.71c-.31-.42-.6-.81-.9-1.16-1.05-1.24-3.33-4.93-6.78-10.98-.63-1.11-.77-1.35-1.17-1.63l-.03-.03c-.38-.39-2.99-3.29-2.74-8.88,.16-3.65,.66-4.68,1.1-5.59,.4-.83,.69-1.52,.73-2.89,.05-1.76,0-3.72-.03-5.62l-.02-.85c-.17-8.07-.39-18.11,5.66-23.84,2.57-2.43,8.95-5.27,18.5-5.27s15.73,2.74,18.54,5.3c6.04,5.51,5.82,15.45,5.64,23.44l-.03,1.22c-.04,1.9-.08,3.86-.03,5.62,.04,1.36,.32,2.05,.73,2.89,.44,.91,.94,1.94,1.1,5.59,.26,5.9-2.66,8.79-2.72,8.86l-.09,.08c-.36,.27-.51,.52-1.17,1.66-1.26,2.18-5.09,8.81-6.8,10.99-.22,.29-.45,.59-.68,.9-1.95,2.65-4.16,5.64-14.65,5.64s-12.35-3.03-14.16-5.46Z"/><path class="d" d="M106.58,66.31c-15.36,0-27.86,12.5-27.86,27.86s12.5,27.86,27.86,27.86,27.86-12.5,27.86-27.86-12.5-27.86-27.86-27.86Zm0,50.72c-12.6,0-22.86-10.25-22.86-22.86s10.25-22.86,22.86-22.86,22.86,10.25,22.86,22.86-10.25,22.86-22.86,22.86Z"/><path class="d" d="M94.87,84.68c.34-.63,.82-1.16,1.42-1.55l9.95-6.93-10.2,16.8s-.89-1.5-1.24-2.26c-.43-.95-.65-1.99-.64-3.04,.01-1.05,.25-2.08,.71-3.02Zm-4.11,11.59c.11,1.61,.57,3.17,1.34,4.59,.77,1.42,1.83,2.65,3.12,3.63l11.01,7.65s-6.89-9.89-12.7-19.73c-.59-1.04-.98-2.18-1.17-3.36-.08-.53-.08-1.08,0-1.61-.15,.28-.45,.85-.45,.85-.59,1.2-.99,2.48-1.19,3.8-.11,1.39-.1,2.8,.04,4.19Zm28.07,1.33c-.36-.76-1.24-2.26-1.24-2.26l-10.18,16.8,9.95-6.92c.59-.39,1.08-.93,1.42-1.55,.45-.95,.7-1.98,.71-3.02,.01-1.05-.21-2.09-.64-3.04h-.02Zm4.04-5.53c-.11-1.61-.57-3.17-1.34-4.59-.77-1.42-1.83-2.65-3.12-3.63l-10.99-7.65s6.88,9.89,12.7,19.73c.59,1.04,.98,2.18,1.16,3.36,.08,.53,.08,1.08,0,1.61,.15-.28,.45-.85,.45-.85,.59-1.2,.99-2.48,1.19-3.8,.12-1.39,.11-2.79-.03-4.19h-.02Z"/></g></g></g></svg>