<?xml version="1.0" encoding="UTF-8"?><svg xmlns="http://www.w3.org/2000/svg" viewBox="0 0 105 128.93"><defs><style>.d{fill:#333;}</style></defs><g id="a"/><g id="b"><g id="c"><g><path class="d" d="M47.49,107.93h10c1.38,0,2.5-1.12,2.5-2.5v-11.37c2.29-2.2,3.63-5.17,3.63-8.15,0-6.13-4.99-11.12-11.12-11.12s-11.13,4.99-11.13,11.12c0,2.99,1.33,5.96,3.62,8.15v11.37c0,1.38,1.12,2.5,2.5,2.5Zm5.01-28.14c3.37,0,6.12,2.75,6.12,6.12,0,2.18-1.38,4.04-2.67,5.04-.61,.47-.96,1.2-.96,1.97v10h-5v-10c0-.77-.35-1.5-.96-1.97-1.28-1-2.66-2.86-2.66-5.04,0-3.38,2.75-6.12,6.13-6.12Z"/><path class="d" d="M95.08,55.93h-2.08v-15.36C93,18.2,74.83,0,52.5,0S12,18.2,12,40.57v15.36h-2.08c-5.47,0-9.92,4.45-9.92,9.92v53.16c0,5.47,4.45,9.92,9.92,9.92H95.08c5.47,0,9.92-4.45,9.92-9.92v-53.16c0-5.47-4.45-9.92-9.92-9.92ZM17,40.57c0-19.61,15.92-35.57,35.5-35.57s35.5,15.96,35.5,35.57v15.36h-9v-15.36c0-15.55-11.64-27.74-26.5-27.74s-26.5,12.18-26.5,27.74v15.36h-9v-15.36Zm57,15.36H31v-15.36c0-12.75,9.44-22.74,21.5-22.74s21.5,9.99,21.5,22.74v15.36Zm26,63.08c0,2.71-2.21,4.92-4.92,4.92H9.92c-2.71,0-4.92-2.21-4.92-4.92v-53.16c0-2.71,2.21-4.92,4.92-4.92H95.08c2.71,0,4.92,2.21,4.92,4.92v53.16Z"/></g></g></g></svg>