<?xml version="1.0" encoding="UTF-8"?><svg xmlns="http://www.w3.org/2000/svg" viewBox="0 0 126.23 118.71"><defs><style>.d{fill:#333;}</style></defs><g id="a"/><g id="b"><g id="c"><g><path class="d" d="M15.81,92.01h9.83c.61,0,1.2-.21,1.65-.61l3.6-3.15h15.41c1.38,0,2.5-1.11,2.5-2.49,0-1.38-1.15-2.5-2.53-2.5H29.89c-1,0-1.17,.21-1.63,.61l-3.58,3.16-8.88-.02c-.38-1.18-1.02-2.28-1.96-3.22-1.53-1.54-3.57-2.38-5.74-2.38s-4.19,.84-5.72,2.37C.85,85.31,0,87.34,0,89.51c0,2.16,.84,4.2,2.36,5.74,1.53,1.54,3.57,2.38,5.74,2.38s4.19-.84,5.72-2.36c.94-.94,1.6-2.06,1.98-3.25Zm-5.51-.29c-1.17,1.17-3.22,1.17-4.39,0-.59-.59-.91-1.37-.91-2.2,0-.83,.33-1.61,.91-2.19,.59-.58,1.37-.91,2.19-.91s1.61,.32,2.2,.91c1.21,1.21,1.21,3.18,0,4.39Z"/><path class="d" d="M8.14,73.87c2.16,0,4.19-.84,5.72-2.36,.94-.94,1.59-2.05,1.98-3.23h8.88l3.58,3.19c.46,.41,1.05,.63,1.66,.63h15.41c1.38,0,2.5-1.12,2.5-2.5,0-1.38-1.12-2.51-2.5-2.51l-14.46-.02-3.58-3.21c-.46-.4-1.05-.7-1.66-.7l-9.92-.13c-.39-1.09-1.01-2.11-1.88-2.98-1.53-1.54-3.57-2.38-5.74-2.38s-4.19,.84-5.72,2.37C.89,61.56,.04,63.59,.04,65.76s.84,4.2,2.36,5.74c1.53,1.54,3.57,2.38,5.74,2.38Zm-2.19-10.3c.59-.58,1.37-.91,2.19-.91s1.61,.32,2.2,.91c1.21,1.21,1.21,3.18,0,4.39-1.17,1.17-3.22,1.17-4.39,0-.59-.59-.91-1.37-.91-2.2,0-.83,.33-1.61,.91-2.19Z"/><path class="d" d="M20.53,52.74h0c2.16,0,4.19-.84,5.72-2.37,.08-.08,.15-.17,.23-.25l19.21,10.34c.38,.2,.78,.3,1.18,.3,.89,0,1.75-.48,2.2-1.32,.65-1.22,.2-2.73-1.02-3.39l-19.48-10.48c.04-.31,.06-.62,.06-.93,0-2.17-.84-4.2-2.36-5.74-1.53-1.54-3.57-2.38-5.74-2.38s-4.19,.84-5.72,2.36c-1.53,1.53-2.38,3.56-2.38,5.73,0,2.16,.84,4.2,2.37,5.73,1.53,1.54,3.57,2.38,5.74,2.38Zm-2.19-10.3c.59-.58,1.36-.91,2.19-.91s1.61,.32,2.2,.91c.59,.59,.91,1.37,.91,2.2,0,.83-.33,1.61-.91,2.19-.59,.58-1.36,.91-2.19,.91h0c-.83,0-1.61-.32-2.2-.91-.59-.59-.91-1.37-.91-2.2,0-.83,.33-1.61,.91-2.19Z"/><path class="d" d="M46.64,94.78l-19.21,10.34c-.08-.08-.15-.17-.23-.25-1.53-1.52-3.56-2.36-5.72-2.36s-4.21,.85-5.74,2.38c-1.53,1.53-2.37,3.57-2.36,5.74,0,2.17,.85,4.2,2.38,5.73,1.53,1.53,3.56,2.37,5.72,2.37s4.21-.85,5.74-2.38c1.81-1.82,2.58-4.29,2.3-6.66l19.49-10.49c1.22-.65,1.67-2.17,1.02-3.39s-2.17-1.67-3.39-1.02Zm-22.96,18.02c-1.17,1.18-3.22,1.18-4.39,0-.59-.59-.91-1.36-.91-2.19,0-.83,.32-1.61,.91-2.2,.59-.59,1.37-.91,2.2-.91s1.61,.32,2.19,.91c1.21,1.21,1.22,3.18,0,4.39Z"/><path class="d" d="M123.84,83.78c-1.53-1.53-3.56-2.37-5.72-2.37s-4.21,.85-5.74,2.38c-.93,.93-1.58,2.04-1.96,3.22l-8.89,.02-3.6-3.16c-.46-.4-1.04-.62-1.65-.62h-16.36c-1.38,0-2.52,1.13-2.52,2.51,0,1.38,1.48,2.5,2.48,2.5h15.43l3.61,3.15c.46,.4,1.05,.61,1.66,.61h9.83c.38,1.19,1.04,2.31,1.98,3.25,1.53,1.52,3.56,2.36,5.72,2.36h0c2.17,0,4.21-.85,5.74-2.38,1.53-1.53,2.37-3.57,2.36-5.73,0-2.16-.85-4.2-2.38-5.73Zm-3.52,7.93c-.59,.59-1.37,.91-2.2,.91h0c-.83,0-1.61-.32-2.19-.91-1.21-1.21-1.22-3.18,0-4.39,.59-.59,1.37-.91,2.2-.91s1.61,.32,2.19,.91c.59,.59,.91,1.36,.91,2.19,0,.83-.32,1.61-.91,2.2Z"/><path class="d" d="M110.46,63.03l-9.92,.13c-.61,0-1.2,.36-1.66,.76l-3.58,3.18h-14.46c-1.38,0-2.48,1.13-2.48,2.51,0,1.38,1.52,2.5,2.52,2.5h15.39c.61-.02,1.19-.25,1.65-.65l3.58-3.2,8.86-.04c.38,1.2,1.04,2.34,2,3.29,1.53,1.52,3.56,2.36,5.72,2.36s4.21-.85,5.74-2.38c1.53-1.53,2.37-3.57,2.36-5.73s-.85-4.2-2.38-5.73c-1.53-1.53-3.56-2.37-5.72-2.37s-4.21,.85-5.74,2.38c-.87,.87-1.49,1.9-1.88,2.98Zm5.42,.55c.59-.59,1.37-.91,2.2-.91s1.61,.32,2.19,.91c.59,.59,.91,1.36,.91,2.19,0,.83-.32,1.61-.91,2.2-1.17,1.18-3.22,1.18-4.39,0-1.21-1.21-1.22-3.18,0-4.39Z"/><path class="d" d="M78.17,56.06c-1.22,.65-1.67,2.17-1.02,3.39,.45,.84,1.31,1.32,2.2,1.32,.4,0,.81-.1,1.18-.3l19.21-10.34c.08,.08,.15,.17,.23,.25,1.53,1.52,3.56,2.37,5.72,2.37s4.21-.85,5.74-2.38c3.16-3.16,3.15-8.31-.02-11.46-1.53-1.52-3.56-2.36-5.72-2.36s-4.21,.85-5.74,2.38c-1.53,1.53-2.37,3.57-2.37,5.74,0,.31,.02,.62,.06,.93l-19.48,10.48Zm25.33-13.62c.59-.59,1.37-.91,2.2-.91s1.61,.32,2.19,.91c1.21,1.21,1.22,3.18,0,4.39-1.17,1.18-3.22,1.18-4.39,0-.59-.59-.91-1.36-.91-2.19,0-.83,.32-1.61,.91-2.2Z"/><path class="d" d="M104.75,102.5c-2.16,0-4.19,.84-5.72,2.36-.08,.08-.15,.17-.23,.25l-19.21-10.34c-1.22-.65-2.73-.2-3.39,1.02-.65,1.22-.2,2.73,1.02,3.39l19.49,10.49c-.27,2.37,.49,4.84,2.3,6.66,1.53,1.54,3.57,2.38,5.74,2.38h0c2.16,0,4.19-.84,5.72-2.37,1.53-1.53,2.38-3.56,2.38-5.73,0-2.16-.84-4.2-2.36-5.74-1.53-1.54-3.57-2.38-5.74-2.38Zm2.19,10.3c-.59,.58-1.37,.91-2.19,.91h0c-.83,0-1.61-.32-2.2-.91-1.21-1.21-1.21-3.18,0-4.39,.59-.58,1.36-.91,2.19-.91s1.61,.32,2.2,.91c.59,.59,.91,1.37,.91,2.2,0,.83-.33,1.61-.91,2.19Z"/><path class="d" d="M89.76,26.52c0-14.62-11.87-26.52-26.46-26.52s-26.84,11.9-26.84,26.52c0,10.62,6.67,20.49,16.43,24.61v45.28c0,.46,.12,.9,.36,1.29l7.5,12.41c.45,.75,1.26,1.21,2.14,1.21s1.69-.46,2.14-1.21l7.5-12.41c.24-.39,.36-.84,.36-1.29v-5.58c0-.31-.06-.61-.17-.9l-1.33-3.46,1.26-2.71c.15-.33,.23-.69,.23-1.06v-4.5c0-.52-.16-1.02-.46-1.44l-1.39-1.97,1.18-1.28c.43-.46,.67-1.07,.67-1.7v-4.69c0-.35-.08-.71-.22-1.03l-1.29-2.85,1.35-3.65c.1-.28,.16-.57,.16-.87v-7.61c8.64-3.7,16.87-12.95,16.87-24.61Zm-20.18,20.53c-1.01,.35-1.69,1.3-1.69,2.37v8.87l-1.55,4.19c-.23,.62-.2,1.3,.07,1.9l1.49,3.29v3.17l-1.9,2.04c-.81,.87-.89,2.18-.21,3.14l2.11,2.98v3.15l-1.48,3.17c-.29,.61-.31,1.32-.07,1.95l1.54,4.01v4.42l-5,8.27-5-8.27V49.41c0-1.07-.68-2.02-1.69-2.37-8.54-2.92-14.74-11.56-14.74-20.53,0-11.86,9.8-21.52,21.84-21.52s21.46,9.65,21.46,21.52c0,10.07-7.64,17.95-15.18,20.53Z"/><path class="d" d="M63.36,12.85c-4.71,0-8.53,3.83-8.53,8.53s3.83,8.53,8.53,8.53,8.53-3.83,8.53-8.53-3.83-8.53-8.53-8.53Zm0,12.07c-1.95,0-3.53-1.59-3.53-3.53s1.59-3.53,3.53-3.53,3.53,1.58,3.53,3.53-1.58,3.53-3.53,3.53Z"/></g></g></g></svg>