<?xml version="1.0" encoding="UTF-8"?><svg xmlns="http://www.w3.org/2000/svg" viewBox="0 0 138.25 124.37"><defs><style>.d{fill:none;stroke:#333;stroke-miterlimit:10;stroke-width:5px;}</style></defs><g id="a"/><g id="b"><g id="c"><g><path class="d" d="M122.94,43.96c0,9.4-5.74,15.66-12.81,15.66s-12.81-6.26-12.81-15.66c0-6.92,5.74-12.53,12.81-12.53s12.81,5.61,12.81,12.53Z"/><path class="d" d="M84.5,90.37v-15.32c0-2.53,1.47-4.82,3.78-5.85,4.26-1.88,11.91-4.46,21.98-4.46s17.56,2.56,21.75,4.44c2.29,1.03,3.74,3.32,3.74,5.83v15.35h-51.25Z"/><path class="d" d="M99.78,18.62c-8.56-6.41-19.14-10.25-30.66-10.25-9.88,0-19.07,2.84-26.9,7.69"/><path class="d" d="M40.94,43.96c0,9.4-5.74,15.66-12.81,15.66s-12.81-6.26-12.81-15.66c0-6.92,5.74-12.53,12.81-12.53s12.81,5.61,12.81,12.53Z"/><path class="d" d="M2.5,90.37v-15.32c0-2.53,1.47-4.82,3.78-5.85,4.26-1.88,11.91-4.46,21.98-4.46s17.56,2.56,21.75,4.44c2.29,1.03,3.74,3.32,3.74,5.83v15.35H2.5Z"/><polyline class="d" points="43.5 .69 38.38 18.62 56.31 23.75"/><path class="d" d="M38.47,105.75c8.56,6.41,19.14,10.25,30.66,10.25,9.88,0,19.07-2.84,26.9-7.69"/><polyline class="d" points="94.75 123.69 99.88 105.75 81.94 100.62"/></g></g></g></svg>